<?xml version="1.0" encoding="UTF-8" standalone="no"?>
<!-- Created with Inkscape (http://www.inkscape.org/) -->

<svg
   xmlns:dc="http://purl.org/dc/elements/1.1/"
   xmlns:cc="http://creativecommons.org/ns#"
   xmlns:rdf="http://www.w3.org/1999/02/22-rdf-syntax-ns#"
   xmlns:svg="http://www.w3.org/2000/svg"
   xmlns="http://www.w3.org/2000/svg"
   xmlns:sodipodi="http://sodipodi.sourceforge.net/DTD/sodipodi-0.dtd"
   xmlns:inkscape="http://www.inkscape.org/namespaces/inkscape"
   width="40"
   height="40"
   viewBox="0 0 39.999999 40.000001"
   id="svg2"
   version="1.1"
   inkscape:version="0.91 r13725"
   sodipodi:docname="mute.svg">
  <defs
     id="defs4" />
  <sodipodi:namedview
     id="base"
     pagecolor="#ffffff"
     bordercolor="#666666"
     borderopacity="1.0"
     inkscape:pageopacity="0.0"
     inkscape:pageshadow="2"
     inkscape:zoom="3.959798"
     inkscape:cx="29.949237"
     inkscape:cy="18.77448"
     inkscape:document-units="px"
     inkscape:current-layer="layer1"
     showgrid="false"
     units="px"
     inkscape:window-width="1228"
     inkscape:window-height="755"
     inkscape:window-x="51"
     inkscape:window-y="0"
     inkscape:window-maximized="0" />
  <metadata
     id="metadata7">
    <rdf:RDF>
      <cc:Work
         rdf:about="">
        <dc:format>image/svg+xml</dc:format>
        <dc:type
           rdf:resource="http://purl.org/dc/dcmitype/StillImage" />
        <dc:title></dc:title>
      </cc:Work>
    </rdf:RDF>
  </metadata>
  <g
     inkscape:label="Layer 1"
     inkscape:groupmode="layer"
     id="layer1"
     transform="translate(0,-1012.3621)">
    <path
       style="fill:#f2f2f2"
       d="m 26.424234,1046.0372 c -0.195323,-0.092 -1.54988,-1.3994 -4.137124,-3.9914 l -3.846733,-3.8536 -3.12131,-0.011 c -2.883392,-0.012 -3.143539,-0.012 -3.411713,-0.1363 -0.15976,-0.074 -0.378459,-0.2284 -0.48611,-0.3431 -0.431717,-0.4604 -0.421221,-0.328 -0.421221,-5.3256 0,-4.9982 -0.0103,-4.866 0.421221,-5.3263 0.107651,-0.1149 0.32635,-0.2693 0.48611,-0.3432 0.268023,-0.1241 0.52738,-0.1344 3.373641,-0.136 l 3.083214,-0.012 3.848536,-3.8429 c 3.992319,-3.9867 4.163176,-4.1359 4.739999,-4.1398 0.52248,-0.012 1.086955,0.381 1.32996,0.9057 0.1292,0.2791 0.134343,0.7788 0.134343,12.8841 0,12.1044 -0.0046,12.6042 -0.134343,12.8832 -0.164805,0.3561 -0.46401,0.6451 -0.82182,0.7951 -0.35554,0.148 -0.6811,0.1401 -1.03665,-0.028 z"
       id="path3476"
       inkscape:connector-curvature="0" />
  </g>
</svg>
