<?xml version="1.0" encoding="UTF-8" standalone="no"?>
<!-- Created with Inkscape (http://www.inkscape.org/) -->

<svg
   xmlns:dc="http://purl.org/dc/elements/1.1/"
   xmlns:cc="http://creativecommons.org/ns#"
   xmlns:rdf="http://www.w3.org/1999/02/22-rdf-syntax-ns#"
   xmlns:svg="http://www.w3.org/2000/svg"
   xmlns="http://www.w3.org/2000/svg"
   xmlns:sodipodi="http://sodipodi.sourceforge.net/DTD/sodipodi-0.dtd"
   xmlns:inkscape="http://www.inkscape.org/namespaces/inkscape"
   width="40"
   height="40"
   viewBox="0 0 39.999999 40.000001"
   id="svg2"
   version="1.1"
   inkscape:version="0.91 r13725"
   sodipodi:docname="volume-up.svg">
  <defs
     id="defs4" />
  <sodipodi:namedview
     id="base"
     pagecolor="#ffffff"
     bordercolor="#666666"
     borderopacity="1.0"
     inkscape:pageopacity="0.0"
     inkscape:pageshadow="2"
     inkscape:zoom="3.959798"
     inkscape:cx="-5.1535637"
     inkscape:cy="18.77448"
     inkscape:document-units="px"
     inkscape:current-layer="layer1"
     showgrid="false"
     units="px"
     inkscape:window-width="1228"
     inkscape:window-height="755"
     inkscape:window-x="122"
     inkscape:window-y="42"
     inkscape:window-maximized="0" />
  <metadata
     id="metadata7">
    <rdf:RDF>
      <cc:Work
         rdf:about="">
        <dc:format>image/svg+xml</dc:format>
        <dc:type
           rdf:resource="http://purl.org/dc/dcmitype/StillImage" />
        <dc:title />
      </cc:Work>
    </rdf:RDF>
  </metadata>
  <g
     inkscape:label="Layer 1"
     inkscape:groupmode="layer"
     id="layer1"
     transform="translate(0,-1012.3621)">
    <path
       style="fill:#f2f2f2"
       d="m 27.021495,1048.3664 c -0.52009,-0.2487 -0.83471,-0.7454 -0.83471,-1.32 0,-0.6586 0.40572,-1.1148 1.408996,-1.5845 2.913484,-1.3656 5.361098,-3.8082 6.793254,-6.7773 2.222141,-4.6077 1.874004,-9.9736 -0.924506,-14.2483 -1.49206,-2.2785 -3.501009,-4.0271 -5.971206,-5.1981 -0.299433,-0.142 -0.651997,-0.3492 -0.783488,-0.4602 -1.084695,-0.9167 -0.335885,-2.6508 1.072805,-2.4844 0.504112,0.062 2.010175,0.8147 3.194708,1.6009 2.624516,1.7417 4.680603,4.1388 6.096171,7.106 1.722137,3.6102 2.112325,7.8067 1.09584,11.7887 -0.581362,2.2764 -1.936911,4.8922 -3.506355,6.7642 -1.559615,1.8614 -3.183514,3.1567 -5.400004,4.3059 -1.286734,0.6677 -1.706697,0.762 -2.241505,0.5071 z"
       id="path3478" />
    <path
       style="fill:#f2f2f2"
       d="m 16.424234,1046.0372 c -0.195323,-0.092 -1.54988,-1.3994 -4.137124,-3.9914 l -3.8467332,-3.8536 -3.1213093,-0.011 c -2.8833925,-0.012 -3.1435397,-0.012 -3.4117137,-0.1363 -0.1597601,-0.074 -0.3784589,-0.2284 -0.4861095,-0.3431 -0.43171684,-0.4604 -0.4212217,-0.328 -0.4212217,-5.3256 0,-4.9982 -0.010296,-4.866 0.4212217,-5.3263 0.1076506,-0.1149 0.3263494,-0.2693 0.4861095,-0.3432 0.2680236,-0.1241 0.5273798,-0.1344 3.3736412,-0.136 l 3.0832144,-0.012 3.8485356,-3.8429 c 3.992319,-3.9867 4.163176,-4.1359 4.739999,-4.1398 0.52248,-0.012 1.086955,0.381 1.32996,0.9057 0.1292,0.2791 0.134343,0.7788 0.134343,12.8841 0,12.1044 -0.0046,12.6042 -0.134343,12.8832 -0.164805,0.3561 -0.46401,0.6451 -0.82182,0.7951 -0.35554,0.148 -0.6811,0.1401 -1.03665,-0.028 z"
       id="path3476" />
    <path
       style="fill:#f2f2f2"
       d="m 24.966985,1043.1111 c -0.41156,-0.087 -0.90876,-0.5598 -1.034325,-0.9821 -0.132845,-0.447 0.0086,-1.0355 0.324365,-1.3466 0.129645,-0.1265 0.635054,-0.4547 1.12304,-0.7268 1.75898,-0.9822 2.848655,-2.0875 3.68829,-3.7398 0.60611,-1.1927 0.87524,-2.2005 0.943575,-3.5312 0.148125,-2.8875 -1.177673,-5.6659 -3.52717,-7.3935 -0.25532,-0.1871 -0.804835,-0.5264 -1.22124,-0.7534 -1.022328,-0.5579 -1.267118,-0.8182 -1.369161,-1.4557 -0.05892,-0.3688 0.06649,-0.7537 0.351131,-1.0776 0.517035,-0.5892 1.14021,-0.6405 2.131805,-0.1756 1.35806,0.6364 2.874546,1.8092 3.792615,2.9323 2.600174,3.1824 3.407694,7.2198 2.208841,11.0435 -0.413617,1.3182 -1.354496,2.9891 -2.339918,4.1534 -0.884878,1.0457 -2.302158,2.1257 -3.597978,2.7406 -0.731635,0.3471 -1.01892,0.4076 -1.47387,0.3125 z"
       id="path3474" />
    <path
       style="fill:#f2f2f2"
       d="m 22.435201,1037.6566 c -0.551756,-0.2638 -0.784896,-0.6448 -0.784896,-1.2861 0,-0.4357 0.02366,-0.5175 0.222905,-0.7676 0.122605,-0.1529 0.496462,-0.466 0.830725,-0.6961 0.80955,-0.5551 0.982075,-0.7321 1.24904,-1.2732 0.17862,-0.364 0.233062,-0.5809 0.259582,-1.0393 0.06837,-1.1807 -0.305232,-1.9007 -1.360127,-2.6212 -0.752265,-0.5136 -0.925067,-0.6732 -1.100332,-1.0152 -0.411448,-0.8018 0.155608,-1.8486 1.076327,-1.9863 0.675037,-0.1014 1.685745,0.4028 2.559385,1.2767 2.766,2.7675 2.063625,7.5146 -1.369946,9.2593 -0.693559,0.353 -1.078861,0.3888 -1.582663,0.149 z"
       id="path3364" />
  </g>
</svg>
