<?xml version="1.0" encoding="UTF-8" standalone="no"?>
<svg
   xmlns:dc="http://purl.org/dc/elements/1.1/"
   xmlns:cc="http://creativecommons.org/ns#"
   xmlns:rdf="http://www.w3.org/1999/02/22-rdf-syntax-ns#"
   xmlns:svg="http://www.w3.org/2000/svg"
   xmlns="http://www.w3.org/2000/svg"
   height="89.999657"
   width="66.193634"
   version="1.1"
   id="svg5720"
   y="0px"
   x="0px"
   viewBox="0 0 66.193634 89.999658">
  <metadata
     id="metadata5728">
    <rdf:RDF>
      <cc:Work
         rdf:about="">
        <dc:format>image/svg+xml</dc:format>
        <dc:type
           rdf:resource="http://purl.org/dc/dcmitype/StillImage" />
        <dc:title></dc:title>
      </cc:Work>
    </rdf:RDF>
  </metadata>
  <defs
     id="defs5726" />
  <path
     id="path5722"
     d="m 31.92263,0 0,57.664062 c -5.762,-2.408 -13.394422,-1.632656 -19.982422,2.027344 -10.0999997,5.626 -14.6871403,16.202953 -10.2441403,23.626953 4.443,7.424 16.2339373,8.882813 26.3359373,3.257813 7.07,-3.949 11.71125,-10.540781 11.90625,-16.925781 0.03538,-9.518583 0.03925,-19.492586 0.03711,-29.455079 l 0.121093,0.398438 C 59.48565,39.344746 60.944169,54.859065 49.70388,70.410156 56.597385,63.147409 60.551261,56.344398 61.934349,50.382812 69.739459,34.331161 67.046311,18.697778 51.957786,10.005859 47.697786,7.9858594 41.966599,5.0538594 39.965599,0.00585938 37.293429,-0.00114063 34.56275,0.0191 31.92263,0 Z m 8.046875,18.001953 c 18.233101,3.977622 23.082345,12.090011 21.976562,23.404297 -1.261358,-4.650585 -4.643185,-8.362885 -9.859375,-10.806641 -4.26,-2.02 -9.99314,-4.952 -11.99414,-10 -0.250807,-0.548217 -0.12308,-1.906979 -0.123047,-2.597656 z" />
</svg>
