<?xml version="1.0" encoding="UTF-8" standalone="no"?>
<svg
   xmlns:dc="http://purl.org/dc/elements/1.1/"
   xmlns:cc="http://creativecommons.org/ns#"
   xmlns:rdf="http://www.w3.org/1999/02/22-rdf-syntax-ns#"
   xmlns:svg="http://www.w3.org/2000/svg"
   xmlns="http://www.w3.org/2000/svg"
   xmlns:sodipodi="http://sodipodi.sourceforge.net/DTD/sodipodi-0.dtd"
   xmlns:inkscape="http://www.inkscape.org/namespaces/inkscape"
   viewBox="0 0 69.999809 90.000024"
   x="0px"
   y="0px"
   id="svg6292"
   version="1.1"
   inkscape:version="0.91 r13725"
   sodipodi:docname="32-note.svg">
  <metadata
     id="metadata6300">
    <rdf:RDF>
      <cc:Work
         rdf:about="">
        <dc:format>image/svg+xml</dc:format>
        <dc:type
           rdf:resource="http://purl.org/dc/dcmitype/StillImage" />
        <dc:title></dc:title>
      </cc:Work>
    </rdf:RDF>
  </metadata>
  <defs
     id="defs6298" />
  <sodipodi:namedview
     pagecolor="#ffffff"
     bordercolor="#666666"
     borderopacity="1"
     objecttolerance="10"
     gridtolerance="10"
     guidetolerance="10"
     inkscape:pageopacity="0"
     inkscape:pageshadow="2"
     inkscape:window-width="969"
     inkscape:window-height="526"
     id="namedview6296"
     showgrid="false"
     inkscape:zoom="1.3111108"
     inkscape:cx="34.51014"
     inkscape:cy="57.094996"
     inkscape:window-x="166"
     inkscape:window-y="168"
     inkscape:window-maximized="0"
     inkscape:current-layer="svg6292" />
  <path
     d="m 31.919922,0 0,16 0,16 0,25.664062 c -5.762,-2.408 -13.394422,-1.632656 -19.982422,2.027344 -10.1,5.626 -14.6871406,16.202953 -10.2441406,23.626953 4.443,7.424 16.2339376,8.882813 26.3359376,3.257813 7.07,-3.949 11.71125,-10.540781 11.90625,-16.925781 0.03257,-8.763135 0.03985,-13.196629 0.03906,-17.658203 3.673955,-10.003164 30.179688,7.011718 30.179688,7.011718 C 66.51547,48.822242 48.00583,44.982902 41.376953,34.732422 47.784568,28.975169 70.154297,43.003906 70.154297,43.003906 66.51547,32.822242 48.00583,28.982902 41.376953,18.732422 47.514908,13.514488 70.154297,27.003906 70.154297,27.003906 66.209227,15.965356 44.774271,12.387829 39.962891,0.00585938 37.290721,-0.00114063 34.560042,0.0191 31.919922,0 Z"
     id="path6294"
     inkscape:connector-curvature="0"
     sodipodi:nodetypes="cccccscccccccccc" />
</svg>
