<?xml version="1.0" encoding="UTF-8" standalone="no"?>
<svg
   xmlns:dc="http://purl.org/dc/elements/1.1/"
   xmlns:cc="http://creativecommons.org/ns#"
   xmlns:rdf="http://www.w3.org/1999/02/22-rdf-syntax-ns#"
   xmlns:svg="http://www.w3.org/2000/svg"
   xmlns="http://www.w3.org/2000/svg"
   version="1.1"
   id="svg4770"
   y="0px"
   x="0px"
   viewBox="0 0 69.999809 90.000024">
  <metadata
     id="metadata4778">
    <rdf:RDF>
      <cc:Work
         rdf:about="">
        <dc:format>image/svg+xml</dc:format>
        <dc:type
           rdf:resource="http://purl.org/dc/dcmitype/StillImage" />
        <dc:title></dc:title>
      </cc:Work>
    </rdf:RDF>
  </metadata>
  <defs
     id="defs4776" />
  <path
     id="path4772"
     transform="translate(-273.07,-554.7)"
     d="m 304.99,554.7 0,57.664 c -5.762,-2.408 -13.395,-1.633 -19.983,2.027 -10.1,5.626 -14.687,16.204 -10.244,23.628 4.443,7.424 16.234,8.882 26.336,3.257 7.07,-3.949 11.711,-10.541 11.906,-16.926 0.062,-16.681 0.031,-32.913 0.031,-49.649 14.583,0 23.22,5.668 20.01,20 -1.751,7.312 -5.48,13.736 -10.02,18.205 11.979,-6.671 20.04,-17.474 20.04,-28.2 0,-10 -9.692,-16.04 -18.04,-20 -4.26,-2.02 -9.993,-4.952 -11.994,-10 -2.67217,-0.007 -5.40188,0.0131 -8.042,-0.006 z" />
</svg>
