<?xml version="1.0" encoding="UTF-8" standalone="no"?>
<svg
   xmlns:dc="http://purl.org/dc/elements/1.1/"
   xmlns:cc="http://creativecommons.org/ns#"
   xmlns:rdf="http://www.w3.org/1999/02/22-rdf-syntax-ns#"
   xmlns:svg="http://www.w3.org/2000/svg"
   xmlns="http://www.w3.org/2000/svg"
   width="124.15428mm"
   height="124.16864mm"
   viewBox="0 0 439.91675 439.96762"
   id="svg4154"
   version="1.1">
  <defs
     id="defs4156" />
  <metadata
     id="metadata4159">
    <rdf:RDF>
      <cc:Work
         rdf:about="">
        <dc:format>image/svg+xml</dc:format>
        <dc:type
           rdf:resource="http://purl.org/dc/dcmitype/StillImage" />
        <dc:title></dc:title>
      </cc:Work>
    </rdf:RDF>
  </metadata>
  <path
     id="path4702"
     d="m 375.74343,64.73457 c 21.47416,21.4999 38.75501,47.7239 50.05128,77.70305 38.55787,102.32874 -4.14581,217.80427 -100.0045,270.4255 C 229.9315,465.48436 109.58296,439.5168 43.95289,352.04917 -15.99277,272.15738 -13.9019,162.78532 45.82979,85.51552 L 9.31986,49.00558 C 6.98174,46.66464 8.63805,42.6649 11.94665,42.66373 l 105.06197,-9.9e-4 c 2.05153,2.2e-4 3.71494,1.66365 3.71509,3.71507 l -1e-5,105.06337 c -3.3e-4,1.00374 -0.40824,1.96487 -1.12833,2.66408 -1.45646,1.41389 -3.77771,1.39741 -5.21355,-0.0373 L 74.38059,114.06671 C 28.37536,177.08504 27.79653,263.86909 75.9481,328.04246 129.80792,399.82343 227.87506,420.9836 306.54226,377.79957 385.20942,334.61554 420.00644,240.51972 388.36363,156.54282 356.72081,72.56594 268.48118,24.83043 180.87749,44.29792 A 20.002,20.002 0 1 1 172.19886,5.24959 c 73.38934,-16.30873 147.50825,6.28347 199.1942,55.24824 1.46838,1.39102 2.91878,2.80379 4.35038,4.2371 z"
     style="color:#000000;font-style:normal;font-variant:normal;font-weight:normal;font-stretch:normal;font-size:medium;line-height:normal;font-family:sans-serif;text-indent:0;text-align:start;text-decoration:none;text-decoration-line:none;text-decoration-style:solid;text-decoration-color:#000000;letter-spacing:normal;word-spacing:normal;text-transform:none;direction:ltr;block-progression:tb;writing-mode:lr-tb;baseline-shift:baseline;text-anchor:start;white-space:normal;clip-rule:nonzero;display:inline;overflow:visible;visibility:visible;opacity:1;isolation:auto;mix-blend-mode:normal;color-interpolation:sRGB;color-interpolation-filters:linearRGB;solid-color:#000000;solid-opacity:1;fill:#000000;fill-opacity:1;fill-rule:nonzero;stroke:none;stroke-width:40;stroke-linecap:round;stroke-linejoin:miter;stroke-miterlimit:4;stroke-dasharray:none;stroke-dashoffset:0;stroke-opacity:1;color-rendering:auto;image-rendering:auto;shape-rendering:auto;text-rendering:auto;enable-background:accumulate" />
  <g
     id="layer1-4"
     transform="translate(-558.34272,-662.98425)" />
  <g
     id="text5316"
     style="font-style:normal;font-variant:normal;font-weight:600;font-stretch:normal;font-size:32.12862015px;line-height:125%;font-family:'Adobe Fan Heiti Std';-inkscape-font-specification:'Adobe Fan Heiti Std Semi-Bold';text-align:start;letter-spacing:0px;word-spacing:0px;text-anchor:start;fill:#000000;fill-opacity:1;stroke:none;stroke-width:1px;stroke-linecap:butt;stroke-linejoin:miter;stroke-opacity:1">
    <path
       id="path5964"
       style="font-style:normal;font-variant:normal;font-weight:bold;font-stretch:normal;font-size:257.02896118px;font-family:'Avenir Next';-inkscape-font-specification:'Avenir Next Bold'"
       d="m 266.76759,276.41193 0,35.47 -40.35355,0 0,-35.47 -85.59064,0 0,-36.24108 74.02434,-110.26543 51.66282,0 0,111.55057 25.18884,0 0,34.95594 -24.93181,0 z m -40.09652,-102.29753 -0.77109,0 -43.18086,67.34159 43.95195,0 0,-67.34159 z" />
  </g>
</svg>
