<?xml version="1.0" encoding="UTF-8" standalone="no"?>
<svg
   xmlns:dc="http://purl.org/dc/elements/1.1/"
   xmlns:cc="http://creativecommons.org/ns#"
   xmlns:rdf="http://www.w3.org/1999/02/22-rdf-syntax-ns#"
   xmlns:svg="http://www.w3.org/2000/svg"
   xmlns="http://www.w3.org/2000/svg"
   width="124.15428mm"
   height="124.16864mm"
   viewBox="0 0 439.91675 439.96762"
   id="svg4154"
   version="1.1">
  <defs
     id="defs4156" />
  <metadata
     id="metadata4159">
    <rdf:RDF>
      <cc:Work
         rdf:about="">
        <dc:format>image/svg+xml</dc:format>
        <dc:type
           rdf:resource="http://purl.org/dc/dcmitype/StillImage" />
        <dc:title></dc:title>
      </cc:Work>
    </rdf:RDF>
  </metadata>
  <g
     id="layer1"
     transform="translate(-193.22281,-304.76596)">
    <path
       style="color:#000000;font-style:normal;font-variant:normal;font-weight:normal;font-stretch:normal;font-size:medium;line-height:normal;font-family:sans-serif;text-indent:0;text-align:start;text-decoration:none;text-decoration-line:none;text-decoration-style:solid;text-decoration-color:#000000;letter-spacing:normal;word-spacing:normal;text-transform:none;direction:ltr;block-progression:tb;writing-mode:lr-tb;baseline-shift:baseline;text-anchor:start;white-space:normal;clip-rule:nonzero;display:inline;overflow:visible;visibility:visible;opacity:1;isolation:auto;mix-blend-mode:normal;color-interpolation:sRGB;color-interpolation-filters:linearRGB;solid-color:#000000;solid-opacity:1;fill:#000000;fill-opacity:1;fill-rule:nonzero;stroke:none;stroke-width:40;stroke-linecap:round;stroke-linejoin:miter;stroke-miterlimit:4;stroke-dasharray:none;stroke-dashoffset:0;stroke-opacity:1;color-rendering:auto;image-rendering:auto;shape-rendering:auto;text-rendering:auto;enable-background:accumulate"
       d="m 568.96624,369.50053 c 21.47416,21.4999 38.75501,47.7239 50.05128,77.70305 38.55787,102.32874 -4.14581,217.80427 -100.0045,270.4255 -95.85871,52.62124 -216.20725,26.65368 -281.83732,-60.81395 -59.94566,-79.89179 -57.85479,-189.26385 1.8769,-266.53365 l -36.50993,-36.50994 c -2.33812,-2.34094 -0.68181,-6.34068 2.62679,-6.34185 l 105.06197,-9.9e-4 c 2.05153,2.2e-4 3.71494,1.66365 3.71509,3.71507 l -1e-5,105.06337 c -3.3e-4,1.00374 -0.40824,1.96487 -1.12833,2.66408 -1.45646,1.41389 -3.77771,1.39741 -5.21355,-0.0373 L 267.6034,418.83267 c -46.00523,63.01833 -46.58406,149.80238 1.56751,213.97575 53.85982,71.78097 151.92696,92.94114 230.59416,49.75711 C 578.43223,639.3815 613.22925,545.28568 581.58644,461.30878 549.94362,377.3319 461.70399,329.59639 374.1003,349.06388 a 20.002,20.002 0 1 1 -8.67863,-39.04833 c 73.38934,-16.30873 147.50825,6.28347 199.1942,55.24824 1.46838,1.39102 2.91878,2.80379 4.35038,4.2371 z"
       id="path4702" />
    <g
       transform="translate(-365.11991,-358.21829)"
       id="layer1-4" />
    <g
       id="text5316"
       style="font-style:normal;font-variant:normal;font-weight:600;font-stretch:normal;font-size:32.12862015px;line-height:125%;font-family:'Adobe Fan Heiti Std';-inkscape-font-specification:'Adobe Fan Heiti Std Semi-Bold';text-align:start;letter-spacing:0px;word-spacing:0px;text-anchor:start;fill:#000000;fill-opacity:1;stroke:none;stroke-width:1px;stroke-linecap:butt;stroke-linejoin:miter;stroke-opacity:1">
      <path
         id="path7204"
         style="font-style:normal;font-variant:normal;font-weight:bold;font-stretch:normal;font-size:257.02896118px;font-family:'Avenir Next';-inkscape-font-specification:'Avenir Next Bold'"
         d="m 351.09845,616.64789 0,-35.98406 70.94,-64.25724 q 6.68275,-6.42572 10.79521,-13.10847 4.11247,-6.68276 4.11247,-14.90768 0,-9.7671 -6.1687,-15.67877 -6.16869,-6.1687 -16.44985,-6.1687 -10.79522,0 -17.735,7.71087 -6.68275,7.45384 -7.9679,19.79123 l -41.38166,-5.65463 q 1.54217,-13.87957 7.45384,-24.67478 6.16869,-10.79522 15.42174,-18.24906 9.25304,-7.71087 21.07637,-11.5663 12.08036,-4.11247 25.44587,-4.11247 12.59442,0 24.41775,3.34138 11.82333,3.34138 21.07637,10.28116 9.25305,6.93978 14.65065,17.47797 5.65464,10.53819 5.65464,24.67478 0,9.7671 -2.57029,17.735 -2.57029,7.71087 -7.19681,14.39362 -4.36949,6.68275 -10.28116,12.59442 -5.65463,5.65463 -11.82333,11.30927 l -42.15275,37.52623 74.28137,0 0,37.52623 -131.59883,0 z" />
    </g>
  </g>
</svg>
