<?xml version="1.0" encoding="UTF-8" standalone="no"?>
<svg
   xmlns:dc="http://purl.org/dc/elements/1.1/"
   xmlns:cc="http://creativecommons.org/ns#"
   xmlns:rdf="http://www.w3.org/1999/02/22-rdf-syntax-ns#"
   xmlns:svg="http://www.w3.org/2000/svg"
   xmlns="http://www.w3.org/2000/svg"
   version="1.1"
   id="svg4154"
   viewBox="0 0 439.91675 439.96762"
   height="124.16864mm"
   width="124.15428mm">
  <defs
     id="defs4156" />
  <metadata
     id="metadata4159">
    <rdf:RDF>
      <cc:Work
         rdf:about="">
        <dc:format>image/svg+xml</dc:format>
        <dc:type
           rdf:resource="http://purl.org/dc/dcmitype/StillImage" />
        <dc:title></dc:title>
      </cc:Work>
    </rdf:RDF>
  </metadata>
  <g
     transform="translate(-193.22281,-304.76596)"
     id="layer1">
    <path
       id="path4702"
       d="m 568.96624,369.50053 c 21.47416,21.4999 38.75501,47.7239 50.05128,77.70305 38.55787,102.32874 -4.14581,217.80427 -100.0045,270.4255 -95.85871,52.62124 -216.20725,26.65368 -281.83732,-60.81395 -59.94566,-79.89179 -57.85479,-189.26385 1.8769,-266.53365 l -36.50993,-36.50994 c -2.33812,-2.34094 -0.68181,-6.34068 2.62679,-6.34185 l 105.06197,-9.9e-4 c 2.05153,2.2e-4 3.71494,1.66365 3.71509,3.71507 l -1e-5,105.06337 c -3.3e-4,1.00374 -0.40824,1.96487 -1.12833,2.66408 -1.45646,1.41389 -3.77771,1.39741 -5.21355,-0.0373 L 267.6034,418.83267 c -46.00523,63.01833 -46.58406,149.80238 1.56751,213.97575 53.85982,71.78097 151.92696,92.94114 230.59416,49.75711 C 578.43223,639.3815 613.22925,545.28568 581.58644,461.30878 549.94362,377.3319 461.70399,329.59639 374.1003,349.06388 a 20.002,20.002 0 1 1 -8.67863,-39.04833 c 73.38934,-16.30873 147.50825,6.28347 199.1942,55.24824 1.46838,1.39102 2.91878,2.80379 4.35038,4.2371 z"
       style="color:#000000;font-style:normal;font-variant:normal;font-weight:normal;font-stretch:normal;font-size:medium;line-height:normal;font-family:sans-serif;text-indent:0;text-align:start;text-decoration:none;text-decoration-line:none;text-decoration-style:solid;text-decoration-color:#000000;letter-spacing:normal;word-spacing:normal;text-transform:none;direction:ltr;block-progression:tb;writing-mode:lr-tb;baseline-shift:baseline;text-anchor:start;white-space:normal;clip-rule:nonzero;display:inline;overflow:visible;visibility:visible;opacity:1;isolation:auto;mix-blend-mode:normal;color-interpolation:sRGB;color-interpolation-filters:linearRGB;solid-color:#000000;solid-opacity:1;fill:#000000;fill-opacity:1;fill-rule:nonzero;stroke:none;stroke-width:40;stroke-linecap:round;stroke-linejoin:miter;stroke-miterlimit:4;stroke-dasharray:none;stroke-dashoffset:0;stroke-opacity:1;color-rendering:auto;image-rendering:auto;shape-rendering:auto;text-rendering:auto;enable-background:accumulate" />
    <g
       id="layer1-4"
       transform="translate(-365.11991,-358.21829)" />
    <g
       id="text5316"
       style="font-style:normal;font-variant:normal;font-weight:600;font-stretch:normal;font-size:32.12862015px;line-height:125%;font-family:'Adobe Fan Heiti Std';-inkscape-font-specification:'Adobe Fan Heiti Std Semi-Bold';text-align:start;letter-spacing:0px;word-spacing:0px;text-anchor:start;fill:#000000;fill-opacity:1;stroke:none;stroke-width:1px;stroke-linecap:butt;stroke-linejoin:miter;stroke-opacity:1">
      <path
         id="path5340"
         style="font-style:normal;font-variant:normal;font-weight:bold;font-stretch:normal;font-size:257.02896118px;font-family:'Avenir Next';-inkscape-font-specification:'Avenir Next Bold'"
         d="m 483.46837,563.69992 q 0,14.90768 -6.1687,25.95993 -5.91166,10.79521 -15.67876,17.99202 -9.7671,6.93979 -22.10449,10.28116 -12.08037,3.59841 -24.67478,3.59841 -12.3374,0 -24.16073,-2.82732 -11.5663,-2.82732 -21.3334,-8.48196 -9.51007,-5.91166 -16.70688,-14.90768 -7.19681,-9.25304 -10.79522,-22.10449 l 40.09652,-10.53818 q 2.57029,8.99601 10.53819,15.93579 7.96789,6.68275 20.30528,6.68275 4.62652,0 9.25305,-1.28514 4.88355,-1.28514 8.48195,-3.85543 3.85544,-2.82732 6.1687,-7.19682 2.57029,-4.36949 2.57029,-10.79521 0,-6.93978 -3.34138,-11.5663 -3.08435,-4.62653 -8.48196,-7.19682 -5.14057,-2.82731 -11.82333,-3.85543 -6.68275,-1.28514 -13.3655,-1.28514 l -11.56631,0 0,-31.61457 12.59442,0 q 6.1687,0 11.82333,-0.77108 5.65464,-1.02812 10.02413,-3.34138 4.62652,-2.57029 7.19681,-6.68275 2.82732,-4.11247 2.82732,-10.79522 0,-9.7671 -6.93978,-14.90768 -6.93978,-5.14058 -15.93579,-5.14058 -9.25305,0 -16.19283,5.65464 -6.68275,5.39761 -8.73898,14.65065 l -40.09652,-9.25304 q 3.34137,-11.56631 10.02413,-20.04826 6.68275,-8.73899 15.67876,-14.39362 9.25305,-5.91167 20.04826,-8.73899 10.79522,-3.08435 22.10449,-3.08435 12.08037,0 23.38964,3.08435 11.5663,3.08435 20.56232,9.51007 8.99601,6.42573 14.39362,16.19283 5.65464,9.51007 5.65464,22.61855 0,15.1647 -8.73899,25.70289 -8.48195,10.28116 -21.84746,13.87957 l 0,0.77108 q 7.71087,1.79921 14.13659,5.91167 6.42573,3.85543 11.05225,9.51007 4.62652,5.39761 7.19681,12.33739 2.57029,6.68275 2.57029,14.39362 z" />
    </g>
  </g>
</svg>
