<?xml version="1.0" encoding="UTF-8" standalone="no"?>
<svg
   xmlns:dc="http://purl.org/dc/elements/1.1/"
   xmlns:cc="http://creativecommons.org/ns#"
   xmlns:rdf="http://www.w3.org/1999/02/22-rdf-syntax-ns#"
   xmlns:svg="http://www.w3.org/2000/svg"
   xmlns="http://www.w3.org/2000/svg"
   height="84.599998"
   width="92.099998"
   id="svg4245"
   xml:space="preserve"
   enable-background="new 0 0 100 100"
   viewBox="0 0 92.099998 84.599998"
   y="0px"
   x="0px"
   version="1.1"><metadata
     id="metadata4253"><rdf:RDF><cc:Work
         rdf:about=""><dc:format>image/svg+xml</dc:format><dc:type
           rdf:resource="http://purl.org/dc/dcmitype/StillImage" /><dc:title></dc:title></cc:Work></rdf:RDF></metadata><defs
     id="defs4251" /><path
     id="path4247"
     d="M 36.3,84.6 30.2,25 25.1,61.5 18.1,42.7 13,50.4 6.1,47 1.5,47 C 0.7,47 0,46.3 0,45.5 0,44.7 0.7,44 1.5,44 l 5.4,0 5.1,2.6 6.9,-10.3 5,13.2 6.9,-49.5 5.9,58.3 5.6,-43.8 6.6,37.3 5.4,-18.8 6.4,15 5.6,-10.3 6.5,8.6 5.4,-4.5 6.6,2.2 5.8,0 c 0.8,0 1.5,0.7 1.5,1.5 0,0.8 -0.7,1.5 -1.5,1.5 L 84.4,47 79,45.2 72.4,50.7 66.9,43.3 60.5,55 54.9,42 48.3,65.2 42.9,34.5 36.3,84.6 Z" /></svg>