<?xml version="1.0" encoding="UTF-8" standalone="no"?>
<!-- Created with Inkscape (http://www.inkscape.org/) -->

<svg
   xmlns:dc="http://purl.org/dc/elements/1.1/"
   xmlns:cc="http://creativecommons.org/ns#"
   xmlns:rdf="http://www.w3.org/1999/02/22-rdf-syntax-ns#"
   xmlns:svg="http://www.w3.org/2000/svg"
   xmlns="http://www.w3.org/2000/svg"
   xmlns:xlink="http://www.w3.org/1999/xlink"
   xmlns:sodipodi="http://sodipodi.sourceforge.net/DTD/sodipodi-0.dtd"
   xmlns:inkscape="http://www.inkscape.org/namespaces/inkscape"
   width="8.5in"
   height="11in"
   viewBox="0 0 765.00001 990.00002"
   id="svg2"
   version="1.1"
   inkscape:version="0.91 r13725"
   sodipodi:docname="prototype.svg">
  <defs
     id="defs4">
    <pattern
       inkscape:collect="always"
       xlink:href="#pattern6236"
       id="pattern6246"
       patternTransform="matrix(8.6602537,4.9999998,-4.9999998,8.6602537,445.20244,12.13266)" />
    <pattern
       inkscape:collect="always"
       xlink:href="#pattern6226"
       id="pattern6236"
       patternTransform="matrix(8.6602537,4.9999998,-4.9999998,8.6602537,445.20244,252.13266)" />
    <pattern
       inkscape:collect="always"
       xlink:href="#pattern6216"
       id="pattern6226"
       patternTransform="matrix(8.6602537,4.9999998,-4.9999998,8.6602537,445.20244,512.13266)" />
    <pattern
       inkscape:collect="always"
       xlink:href="#pattern6128"
       id="pattern6216"
       patternTransform="matrix(8.6602537,4.9999998,-4.9999998,8.6602537,165.20244,352.13266)" />
    <pattern
       inkscape:collect="always"
       xlink:href="#pattern6108"
       id="pattern6128"
       patternTransform="matrix(-2.5881904,9.6592579,-9.6592579,-2.5881904,548.7049,427.80632)" />
    <pattern
       inkscape:collect="always"
       xlink:href="#pattern6057"
       id="pattern6108"
       patternTransform="matrix(-2.5881904,9.6592579,-9.6592579,-2.5881904,820.2339,108.19406)" />
    <pattern
       inkscape:collect="always"
       xlink:href="#pattern5609"
       id="pattern6057"
       patternTransform="matrix(-2.5881904,9.6592579,-9.6592579,-2.5881904,489.30793,111.02249)" />
    <marker
       inkscape:stockid="EmptyTriangleOutM"
       orient="auto"
       refY="0.0"
       refX="0.0"
       id="EmptyTriangleOutM"
       style="overflow:visible"
       inkscape:isstock="true">
      <path
         id="path5782"
         d="M 5.77,0.0 L -2.88,5.0 L -2.88,-5.0 L 5.77,0.0 z "
         style="fill-rule:evenodd;fill:#ffffff;stroke:#000000;stroke-width:1pt;stroke-opacity:1"
         transform="scale(0.4) translate(-4.5,0)" />
    </marker>
    <marker
       inkscape:stockid="TriangleOutL"
       orient="auto"
       refY="0.0"
       refX="0.0"
       id="TriangleOutL"
       style="overflow:visible"
       inkscape:isstock="true">
      <path
         id="path5761"
         d="M 5.77,0.0 L -2.88,5.0 L -2.88,-5.0 L 5.77,0.0 z "
         style="fill-rule:evenodd;stroke:#000000;stroke-width:1pt;stroke-opacity:1;fill:#000000;fill-opacity:1"
         transform="scale(0.8)" />
    </marker>
    <pattern
       inkscape:collect="always"
       xlink:href="#Strips1_1.5"
       id="pattern5609"
       patternTransform="matrix(8.6602541,5.0000001,-5.0000001,8.6602541,140.36512,-176.46982)" />
    <pattern
       inkscape:isstock="true"
       inkscape:stockid="Stripes 1:1.5"
       id="Strips1_1.5"
       patternTransform="translate(0,0) scale(10,10)"
       height="1"
       width="2.5"
       patternUnits="userSpaceOnUse"
       inkscape:collect="always">
      <rect
         id="rect4880"
         height="2"
         width="1"
         y="-0.5"
         x="0"
         style="fill:black;stroke:none" />
    </pattern>
  </defs>
  <sodipodi:namedview
     id="base"
     pagecolor="#ffffff"
     bordercolor="#666666"
     borderopacity="1.0"
     inkscape:pageopacity="0.0"
     inkscape:pageshadow="2"
     inkscape:zoom="0.35355339"
     inkscape:cx="468.5215"
     inkscape:cy="242.94697"
     inkscape:document-units="px"
     inkscape:current-layer="layer1"
     showgrid="false"
     units="in"
     inkscape:window-width="1235"
     inkscape:window-height="755"
     inkscape:window-x="45"
     inkscape:window-y="1"
     inkscape:window-maximized="1" />
  <metadata
     id="metadata7">
    <rdf:RDF>
      <cc:Work
         rdf:about="">
        <dc:format>image/svg+xml</dc:format>
        <dc:type
           rdf:resource="http://purl.org/dc/dcmitype/StillImage" />
        <dc:title></dc:title>
      </cc:Work>
    </rdf:RDF>
  </metadata>
  <g
     inkscape:label="Layer 1"
     inkscape:groupmode="layer"
     id="layer1"
     transform="translate(0,-62.362145)">
    <path
       style="opacity:0.15;fill:url(#pattern5609);fill-opacity:1;stroke:#000000;stroke-width:3;stroke-linecap:butt;stroke-linejoin:round;stroke-miterlimit:4;stroke-dasharray:none;stroke-dashoffset:0;stroke-opacity:1"
       d="m 127.10399,141.2591 c -29.40916,2e-5 -53.24998,23.84084 -53.24999,53.25 -1e-5,29.40917 23.84084,53.25002 53.25,53.25001 11.7153,-0.0129 22.72497,-4.41239 32.38866,-11.02733 9.66374,-6.61496 40.01581,-24.40964 56.61134,-25.93164 16.59552,-1.52202 35.99999,13.99999 35.99999,13.99999 l -5e-5,-0.0547 c 7.03173,5.82011 15.87208,9.00751 25,9.01368 21.67719,-2e-5 39.25,-17.57284 39.24999,-39.24999 0,-21.67718 -17.57281,-39.25001 -39.24998,-39.25002 -9.13033,0.0117 -17.97097,3.20603 -24.99999,9.0332 l 1e-5,-0.0742 c 0,0 -19.35294,15.52672 -35.99999,13.99999 -16.64707,-1.52673 -47.31639,-19.5666 -56.83984,-26.06639 -9.52344,-6.4998 -20.53872,-10.8684 -32.16016,-10.89259 z"
       id="circle4140"
       inkscape:connector-curvature="0"
       sodipodi:nodetypes="csczzcccsccczzc" />
    <g
       id="g5933"
       transform="matrix(0.48394552,0,0,0.48394552,133.33192,-8.751236)">
      <path
         style="color:#000000;font-style:normal;font-variant:normal;font-weight:normal;font-stretch:normal;font-size:medium;line-height:normal;font-family:sans-serif;text-indent:0;text-align:start;text-decoration:none;text-decoration-line:none;text-decoration-style:solid;text-decoration-color:#000000;letter-spacing:normal;word-spacing:normal;text-transform:none;direction:ltr;block-progression:tb;writing-mode:lr-tb;baseline-shift:baseline;text-anchor:start;white-space:normal;clip-rule:nonzero;display:inline;overflow:visible;visibility:visible;opacity:1;isolation:auto;mix-blend-mode:normal;color-interpolation:sRGB;color-interpolation-filters:linearRGB;solid-color:#000000;solid-opacity:1;fill:#000000;fill-opacity:1;fill-rule:evenodd;stroke:none;stroke-width:10;stroke-linecap:round;stroke-linejoin:miter;stroke-miterlimit:4;stroke-dasharray:none;stroke-dashoffset:0;stroke-opacity:1;color-rendering:auto;image-rendering:auto;shape-rendering:auto;text-rendering:auto;enable-background:accumulate"
         d="m 116.16797,415.00586 c -6.76161,-0.0956 -6.76161,10.09563 0,10 l 51.86328,0 c 6.76161,0.0956 6.76161,-10.09563 0,-10 z"
         id="path5613"
         inkscape:connector-curvature="0"
         sodipodi:nodetypes="ccccc" />
      <path
         style="fill:#000000;fill-rule:evenodd;stroke:#000000;stroke-width:10;stroke-linecap:round;stroke-linejoin:round;stroke-miterlimit:4;stroke-dasharray:none;stroke-opacity:1"
         d="m 168.37781,400.00666 26.6,20 -26.6,20 4.1327,-20 z"
         id="path5939"
         inkscape:connector-curvature="0"
         sodipodi:nodetypes="ccccc" />
    </g>
    <path
       sodipodi:nodetypes="csczzcccsccczzc"
       inkscape:connector-curvature="0"
       id="path6001"
       d="m 178.97316,180.44752 c -7.61168,-28.40705 -36.81059,-45.26505 -65.21767,-37.65342 -28.407068,7.61163 -45.265089,36.81061 -37.653436,65.21767 3.044603,11.31277 10.143692,20.8086 19.034384,28.43096 8.890742,7.62239 33.934772,32.33463 39.700122,47.97075 5.76542,15.63611 -4.20546,38.39678 -4.20546,38.39678 l 0.0528,-0.0142 c -3.80184,8.29848 -4.59259,17.66255 -2.23607,26.48106 5.6105,20.93855 27.1327,33.36439 48.07121,27.75393 20.93856,-5.61048 33.36443,-27.13269 27.75398,-48.07122 -2.37441,-8.81619 -7.74803,-16.52885 -15.19588,-21.81017 l 0.0717,-0.0192 c 0,0 -20.00658,-14.6749 -22.84043,-31.14985 -2.83388,-16.47498 6.6535,-50.76833 10.46696,-61.64955 3.81348,-10.8812 5.18225,-22.65183 2.19777,-33.88353 z"
       style="opacity:0.15;fill:url(#pattern6057);fill-opacity:1;stroke:#000000;stroke-width:3;stroke-linecap:butt;stroke-linejoin:round;stroke-miterlimit:4;stroke-dasharray:none;stroke-dashoffset:0;stroke-opacity:1" />
    <g
       transform="matrix(0.12525432,0.46745548,-0.46745548,0.12525432,325.48392,147.63772)"
       id="g6003">
      <path
         sodipodi:nodetypes="ccccc"
         inkscape:connector-curvature="0"
         id="path6005"
         d="m 116.16797,415.00586 c -6.76161,-0.0956 -6.76161,10.09563 0,10 l 51.86328,0 c 6.76161,0.0956 6.76161,-10.09563 0,-10 z"
         style="color:#000000;font-style:normal;font-variant:normal;font-weight:normal;font-stretch:normal;font-size:medium;line-height:normal;font-family:sans-serif;text-indent:0;text-align:start;text-decoration:none;text-decoration-line:none;text-decoration-style:solid;text-decoration-color:#000000;letter-spacing:normal;word-spacing:normal;text-transform:none;direction:ltr;block-progression:tb;writing-mode:lr-tb;baseline-shift:baseline;text-anchor:start;white-space:normal;clip-rule:nonzero;display:inline;overflow:visible;visibility:visible;opacity:1;isolation:auto;mix-blend-mode:normal;color-interpolation:sRGB;color-interpolation-filters:linearRGB;solid-color:#000000;solid-opacity:1;fill:#000000;fill-opacity:1;fill-rule:evenodd;stroke:none;stroke-width:10;stroke-linecap:round;stroke-linejoin:miter;stroke-miterlimit:4;stroke-dasharray:none;stroke-dashoffset:0;stroke-opacity:1;color-rendering:auto;image-rendering:auto;shape-rendering:auto;text-rendering:auto;enable-background:accumulate" />
      <path
         sodipodi:nodetypes="ccccc"
         inkscape:connector-curvature="0"
         id="path6007"
         d="m 168.37781,400.00666 26.6,20 -26.6,20 4.1327,-20 z"
         style="fill:#000000;fill-rule:evenodd;stroke:#000000;stroke-width:10;stroke-linecap:round;stroke-linejoin:round;stroke-miterlimit:4;stroke-dasharray:none;stroke-opacity:1" />
    </g>
    <g
       id="g6156"
       transform="matrix(0.25881904,-0.96592583,0.96592583,0.25881904,-419.7405,545.14229)">
      <path
         style="opacity:0.15;fill:url(#pattern6128);fill-opacity:1;stroke:#000000;stroke-width:3;stroke-linecap:butt;stroke-linejoin:round;stroke-miterlimit:4;stroke-dasharray:none;stroke-dashoffset:0;stroke-opacity:1"
         d="m 238.37013,497.23135 c -7.61168,-28.40705 -36.81059,-45.26505 -65.21767,-37.65342 -28.40706,7.61163 -45.26509,36.81061 -37.65343,65.21767 3.0446,11.31277 10.14369,20.8086 19.03438,28.43096 8.89074,7.62239 33.93477,32.33463 39.70012,47.97075 5.76542,15.63611 -4.20546,38.39678 -4.20546,38.39678 l 0.0528,-0.0142 c -3.80184,8.29848 -4.59259,17.66255 -2.23607,26.48106 5.6105,20.93855 27.1327,33.36439 48.07121,27.75393 20.93856,-5.61048 33.36443,-27.13269 27.75398,-48.07122 -2.37441,-8.81619 -7.74803,-16.52885 -15.19588,-21.81017 l 0.0717,-0.0192 c 0,0 -20.00658,-14.6749 -22.84043,-31.14985 -2.83388,-16.47498 6.6535,-50.76833 10.46696,-61.64955 3.81348,-10.8812 5.18225,-22.65183 2.19777,-33.88353 z"
         id="path6118"
         inkscape:connector-curvature="0"
         sodipodi:nodetypes="csczzcccsccczzc" />
      <g
         id="g6120"
         transform="matrix(0.12525432,0.46745548,-0.46745548,0.12525432,384.88089,464.42155)">
        <path
           style="color:#000000;font-style:normal;font-variant:normal;font-weight:normal;font-stretch:normal;font-size:medium;line-height:normal;font-family:sans-serif;text-indent:0;text-align:start;text-decoration:none;text-decoration-line:none;text-decoration-style:solid;text-decoration-color:#000000;letter-spacing:normal;word-spacing:normal;text-transform:none;direction:ltr;block-progression:tb;writing-mode:lr-tb;baseline-shift:baseline;text-anchor:start;white-space:normal;clip-rule:nonzero;display:inline;overflow:visible;visibility:visible;opacity:1;isolation:auto;mix-blend-mode:normal;color-interpolation:sRGB;color-interpolation-filters:linearRGB;solid-color:#000000;solid-opacity:1;fill:#000000;fill-opacity:1;fill-rule:evenodd;stroke:none;stroke-width:10;stroke-linecap:round;stroke-linejoin:miter;stroke-miterlimit:4;stroke-dasharray:none;stroke-dashoffset:0;stroke-opacity:1;color-rendering:auto;image-rendering:auto;shape-rendering:auto;text-rendering:auto;enable-background:accumulate"
           d="m 116.16797,415.00586 c -6.76161,-0.0956 -6.76161,10.09563 0,10 l 51.86328,0 c 6.76161,0.0956 6.76161,-10.09563 0,-10 z"
           id="path6122"
           inkscape:connector-curvature="0"
           sodipodi:nodetypes="ccccc" />
        <path
           style="fill:#000000;fill-rule:evenodd;stroke:#000000;stroke-width:10;stroke-linecap:round;stroke-linejoin:round;stroke-miterlimit:4;stroke-dasharray:none;stroke-opacity:1"
           d="m 168.37781,400.00666 26.6,20 -26.6,20 4.1327,-20 z"
           id="path6124"
           inkscape:connector-curvature="0"
           sodipodi:nodetypes="ccccc" />
      </g>
    </g>
    <path
       style="opacity:0.15;fill:url(#pattern6216);fill-opacity:1;stroke:#000000;stroke-width:3;stroke-linecap:butt;stroke-linejoin:round;stroke-miterlimit:4;stroke-dasharray:none;stroke-dashoffset:0;stroke-opacity:1"
       d="m 146.69134,723.11156 c -2e-5,29.40914 -24.15915,101.25 5.25,101.24999 11.7153,-0.0129 22.72495,-4.41239 32.38866,-11.02733 9.66376,-6.61497 40.01582,-72.40965 56.61134,-73.93162 16.59552,-1.52205 35.99998,13.99998 35.99998,13.99998 l -5e-5,-0.0547 c 7.03173,5.8201 15.87207,9.00751 25.00001,9.01368 21.67719,-3e-5 39.24998,-17.57284 39.24998,-39.24998 -10e-6,-21.67719 -17.57282,-39.25002 -39.24998,-39.25003 -9.13032,0.0117 -17.97098,3.20604 -24.99999,9.03321 l 2e-5,-0.0742 c 0,0 -19.35295,15.52673 -35.99999,13.99999 -16.64707,-1.52672 -47.31639,-67.5666 -56.83984,-74.06639 -9.52343,-6.4998 -20.53872,-10.86839 -32.16016,-10.8926 -29.40915,2e-5 -5.24996,71.84083 -5.24998,101.25 z"
       id="path6204"
       inkscape:connector-curvature="0"
       sodipodi:nodetypes="sczzcccsccczzcs" />
    <g
       id="g6206"
       transform="matrix(0.48394553,0,0,0.48394553,158.16926,519.85122)">
      <path
         style="color:#000000;font-style:normal;font-variant:normal;font-weight:normal;font-stretch:normal;font-size:medium;line-height:normal;font-family:sans-serif;text-indent:0;text-align:start;text-decoration:none;text-decoration-line:none;text-decoration-style:solid;text-decoration-color:#000000;letter-spacing:normal;word-spacing:normal;text-transform:none;direction:ltr;block-progression:tb;writing-mode:lr-tb;baseline-shift:baseline;text-anchor:start;white-space:normal;clip-rule:nonzero;display:inline;overflow:visible;visibility:visible;opacity:1;isolation:auto;mix-blend-mode:normal;color-interpolation:sRGB;color-interpolation-filters:linearRGB;solid-color:#000000;solid-opacity:1;fill:#000000;fill-opacity:1;fill-rule:evenodd;stroke:none;stroke-width:10;stroke-linecap:round;stroke-linejoin:miter;stroke-miterlimit:4;stroke-dasharray:none;stroke-dashoffset:0;stroke-opacity:1;color-rendering:auto;image-rendering:auto;shape-rendering:auto;text-rendering:auto;enable-background:accumulate"
         d="m 116.16797,415.00586 c -6.76161,-0.0956 -6.76161,10.09563 0,10 l 51.86328,0 c 6.76161,0.0956 6.76161,-10.09563 0,-10 z"
         id="path6208"
         inkscape:connector-curvature="0"
         sodipodi:nodetypes="ccccc" />
      <path
         style="fill:#000000;fill-rule:evenodd;stroke:#000000;stroke-width:10;stroke-linecap:round;stroke-linejoin:round;stroke-miterlimit:4;stroke-dasharray:none;stroke-opacity:1"
         d="m 168.37781,400.00666 26.6,20 -26.6,20 4.1327,-20 z"
         id="path6210"
         inkscape:connector-curvature="0"
         sodipodi:nodetypes="ccccc" />
    </g>
    <path
       sodipodi:nodetypes="sczzcccsccczzcs"
       inkscape:connector-curvature="0"
       id="path6218"
       d="m 426.69134,883.11156 c -2e-5,29.40914 -24.15915,101.25 5.25,101.24999 11.7153,-0.0129 22.72495,-4.41239 32.38866,-11.02733 9.66376,-6.61497 40.01582,-72.40965 56.61134,-73.93162 16.59552,-1.52205 35.99998,13.99998 35.99998,13.99998 l -5e-5,-0.0547 c 7.03173,5.8201 15.87207,9.00751 25.00001,9.01368 21.67719,-3e-5 39.24998,-17.57284 39.24998,-39.24998 -1e-5,-21.67719 -17.57282,-39.25002 -39.24998,-39.25003 -9.13032,0.0117 -17.97098,3.20604 -24.99999,9.03321 l 2e-5,-0.0742 c 0,0 -19.35295,15.52673 -35.99999,13.99999 -16.64707,-1.52672 -47.31639,-67.5666 -56.83984,-74.06639 -9.52343,-6.4998 -20.53872,-10.86839 -32.16016,-10.8926 -29.40915,2e-5 -5.24996,71.84083 -5.24998,101.25 z"
       style="opacity:0.15;fill:url(#pattern6226);fill-opacity:1;stroke:#000000;stroke-width:3;stroke-linecap:butt;stroke-linejoin:round;stroke-miterlimit:4;stroke-dasharray:none;stroke-dashoffset:0;stroke-opacity:1" />
    <g
       transform="matrix(0.48394553,0,0,0.48394553,438.16926,679.85122)"
       id="g6220">
      <path
         sodipodi:nodetypes="ccccc"
         inkscape:connector-curvature="0"
         id="path6222"
         d="m 116.16797,415.00586 c -6.76161,-0.0956 -6.76161,10.09563 0,10 l 51.86328,0 c 6.76161,0.0956 6.76161,-10.09563 0,-10 z"
         style="color:#000000;font-style:normal;font-variant:normal;font-weight:normal;font-stretch:normal;font-size:medium;line-height:normal;font-family:sans-serif;text-indent:0;text-align:start;text-decoration:none;text-decoration-line:none;text-decoration-style:solid;text-decoration-color:#000000;letter-spacing:normal;word-spacing:normal;text-transform:none;direction:ltr;block-progression:tb;writing-mode:lr-tb;baseline-shift:baseline;text-anchor:start;white-space:normal;clip-rule:nonzero;display:inline;overflow:visible;visibility:visible;opacity:1;isolation:auto;mix-blend-mode:normal;color-interpolation:sRGB;color-interpolation-filters:linearRGB;solid-color:#000000;solid-opacity:1;fill:#000000;fill-opacity:1;fill-rule:evenodd;stroke:none;stroke-width:10;stroke-linecap:round;stroke-linejoin:miter;stroke-miterlimit:4;stroke-dasharray:none;stroke-dashoffset:0;stroke-opacity:1;color-rendering:auto;image-rendering:auto;shape-rendering:auto;text-rendering:auto;enable-background:accumulate" />
      <path
         sodipodi:nodetypes="ccccc"
         inkscape:connector-curvature="0"
         id="path6224"
         d="m 168.37781,400.00666 26.6,20 -26.6,20 4.1327,-20 z"
         style="fill:#000000;fill-rule:evenodd;stroke:#000000;stroke-width:10;stroke-linecap:round;stroke-linejoin:round;stroke-miterlimit:4;stroke-dasharray:none;stroke-opacity:1" />
    </g>
    <path
       style="opacity:0.15;fill:url(#pattern6236);fill-opacity:1;stroke:#000000;stroke-width:3;stroke-linecap:butt;stroke-linejoin:round;stroke-miterlimit:4;stroke-dasharray:none;stroke-dashoffset:0;stroke-opacity:1"
       d="m 426.69134,623.11156 c -2e-5,29.40914 -24.15915,101.25 5.25,101.24999 11.7153,-0.0129 22.72495,-4.41239 32.38866,-11.02733 9.66376,-6.61497 40.01582,-72.40965 56.61134,-73.93162 16.59552,-1.52205 35.99998,13.99998 35.99998,13.99998 l -5e-5,-0.0547 c 7.03173,5.8201 15.87207,9.00751 25.00001,9.01368 21.67719,-3e-5 39.24998,-17.57284 39.24998,-39.24998 -1e-5,-21.67719 -17.57282,-39.25002 -39.24998,-39.25003 -9.13032,0.0117 -17.97098,3.20604 -24.99999,9.03321 l 2e-5,-0.0742 c 0,0 -19.35295,15.52673 -35.99999,13.99999 -16.64707,-1.52672 -47.31639,-67.5666 -56.83984,-74.06639 -9.52343,-6.4998 -20.53872,-10.86839 -32.16016,-10.8926 -29.40915,2e-5 -5.24996,71.84083 -5.24998,101.25 z"
       id="path6228"
       inkscape:connector-curvature="0"
       sodipodi:nodetypes="sczzcccsccczzcs" />
    <g
       id="g6230"
       transform="matrix(0.48394553,0,0,0.48394553,438.16926,419.85122)">
      <path
         style="color:#000000;font-style:normal;font-variant:normal;font-weight:normal;font-stretch:normal;font-size:medium;line-height:normal;font-family:sans-serif;text-indent:0;text-align:start;text-decoration:none;text-decoration-line:none;text-decoration-style:solid;text-decoration-color:#000000;letter-spacing:normal;word-spacing:normal;text-transform:none;direction:ltr;block-progression:tb;writing-mode:lr-tb;baseline-shift:baseline;text-anchor:start;white-space:normal;clip-rule:nonzero;display:inline;overflow:visible;visibility:visible;opacity:1;isolation:auto;mix-blend-mode:normal;color-interpolation:sRGB;color-interpolation-filters:linearRGB;solid-color:#000000;solid-opacity:1;fill:#000000;fill-opacity:1;fill-rule:evenodd;stroke:none;stroke-width:10;stroke-linecap:round;stroke-linejoin:miter;stroke-miterlimit:4;stroke-dasharray:none;stroke-dashoffset:0;stroke-opacity:1;color-rendering:auto;image-rendering:auto;shape-rendering:auto;text-rendering:auto;enable-background:accumulate"
         d="m 116.16797,415.00586 c -6.76161,-0.0956 -6.76161,10.09563 0,10 l 51.86328,0 c 6.76161,0.0956 6.76161,-10.09563 0,-10 z"
         id="path6232"
         inkscape:connector-curvature="0"
         sodipodi:nodetypes="ccccc" />
      <path
         style="fill:#000000;fill-rule:evenodd;stroke:#000000;stroke-width:10;stroke-linecap:round;stroke-linejoin:round;stroke-miterlimit:4;stroke-dasharray:none;stroke-opacity:1"
         d="m 168.37781,400.00666 26.6,20 -26.6,20 4.1327,-20 z"
         id="path6234"
         inkscape:connector-curvature="0"
         sodipodi:nodetypes="ccccc" />
    </g>
    <path
       sodipodi:nodetypes="sczzcccsccczzcs"
       inkscape:connector-curvature="0"
       id="path6238"
       d="m 426.69134,383.11156 c -2e-5,29.40914 -24.15915,101.25 5.25,101.24999 11.7153,-0.0129 22.72495,-4.41239 32.38866,-11.02733 9.66376,-6.61497 40.01582,-72.40965 56.61134,-73.93162 16.59552,-1.52205 35.99998,13.99998 35.99998,13.99998 l -5e-5,-0.0547 c 7.03173,5.8201 15.87207,9.00751 25.00001,9.01368 21.67719,-3e-5 39.24998,-17.57284 39.24998,-39.24998 -1e-5,-21.67719 -17.57282,-39.25002 -39.24998,-39.25003 -9.13032,0.0117 -17.97098,3.20604 -24.99999,9.03321 l 2e-5,-0.0742 c 0,0 -19.35295,15.52673 -35.99999,13.99999 -16.64707,-1.52672 -47.31639,-67.5666 -56.83984,-74.06639 -9.52343,-6.4998 -20.53872,-10.86839 -32.16016,-10.8926 -29.40915,2e-5 -5.24996,71.84083 -5.24998,101.25 z"
       style="opacity:0.15;fill:url(#pattern6246);fill-opacity:1;stroke:#000000;stroke-width:3;stroke-linecap:butt;stroke-linejoin:round;stroke-miterlimit:4;stroke-dasharray:none;stroke-dashoffset:0;stroke-opacity:1" />
    <g
       transform="matrix(0.48394553,0,0,0.48394553,438.16926,179.85122)"
       id="g6240">
      <path
         sodipodi:nodetypes="ccccc"
         inkscape:connector-curvature="0"
         id="path6242"
         d="m 116.16797,415.00586 c -6.76161,-0.0956 -6.76161,10.09563 0,10 l 51.86328,0 c 6.76161,0.0956 6.76161,-10.09563 0,-10 z"
         style="color:#000000;font-style:normal;font-variant:normal;font-weight:normal;font-stretch:normal;font-size:medium;line-height:normal;font-family:sans-serif;text-indent:0;text-align:start;text-decoration:none;text-decoration-line:none;text-decoration-style:solid;text-decoration-color:#000000;letter-spacing:normal;word-spacing:normal;text-transform:none;direction:ltr;block-progression:tb;writing-mode:lr-tb;baseline-shift:baseline;text-anchor:start;white-space:normal;clip-rule:nonzero;display:inline;overflow:visible;visibility:visible;opacity:1;isolation:auto;mix-blend-mode:normal;color-interpolation:sRGB;color-interpolation-filters:linearRGB;solid-color:#000000;solid-opacity:1;fill:#000000;fill-opacity:1;fill-rule:evenodd;stroke:none;stroke-width:10;stroke-linecap:round;stroke-linejoin:miter;stroke-miterlimit:4;stroke-dasharray:none;stroke-dashoffset:0;stroke-opacity:1;color-rendering:auto;image-rendering:auto;shape-rendering:auto;text-rendering:auto;enable-background:accumulate" />
      <path
         sodipodi:nodetypes="ccccc"
         inkscape:connector-curvature="0"
         id="path6244"
         d="m 168.37781,400.00666 26.6,20 -26.6,20 4.1327,-20 z"
         style="fill:#000000;fill-rule:evenodd;stroke:#000000;stroke-width:10;stroke-linecap:round;stroke-linejoin:round;stroke-miterlimit:4;stroke-dasharray:none;stroke-opacity:1" />
    </g>
  </g>
</svg>
