<?xml version="1.0" encoding="UTF-8" standalone="no"?>
<svg
   xmlns:dc="http://purl.org/dc/elements/1.1/"
   xmlns:cc="http://creativecommons.org/ns#"
   xmlns:rdf="http://www.w3.org/1999/02/22-rdf-syntax-ns#"
   xmlns:svg="http://www.w3.org/2000/svg"
   xmlns="http://www.w3.org/2000/svg"
   height="89.999779"
   width="56.906666"
   version="1.1"
   id="svg5101"
   y="0px"
   x="0px"
   viewBox="0 0 56.906666 89.99978">
  <metadata
     id="metadata5109">
    <rdf:RDF>
      <cc:Work
         rdf:about="">
        <dc:format>image/svg+xml</dc:format>
        <dc:type
           rdf:resource="http://purl.org/dc/dcmitype/StillImage" />
        <dc:title></dc:title>
      </cc:Work>
    </rdf:RDF>
  </metadata>
  <defs
     id="defs5107" />
  <path
     id="path5103"
     d="m 31.923091,0 0,57.664 c -5.762,-2.408 -13.395,-1.633 -19.983,2.027 -10.0999998,5.626 -14.6869998,16.204 -10.2439998,23.628 4.443,7.424 16.2339998,8.882 26.3359998,3.257 7.07,-3.949 11.711,-10.541 11.906,-16.926 0.062,-16.681 0.031,-69.649 0.031,-69.649 z" />
  <path
     id="path4748"
     d="m 56.906664,69.745578 a 5,5 0 0 1 -5,5 5,5 0 0 1 -5,-5 5,5 0 0 1 5,-5 5,5 0 0 1 5,5 z"
     style="opacity:1;fill:#000000;fill-opacity:1;stroke:none;stroke-width:2.70000005;stroke-linecap:butt;stroke-linejoin:miter;stroke-miterlimit:4;stroke-dasharray:none;stroke-dashoffset:0;stroke-opacity:1" />
</svg>
