<?xml version="1.0" encoding="UTF-8" standalone="no"?>
<svg
   xmlns:dc="http://purl.org/dc/elements/1.1/"
   xmlns:cc="http://creativecommons.org/ns#"
   xmlns:rdf="http://www.w3.org/1999/02/22-rdf-syntax-ns#"
   xmlns:svg="http://www.w3.org/2000/svg"
   xmlns="http://www.w3.org/2000/svg"
   xmlns:sodipodi="http://sodipodi.sourceforge.net/DTD/sodipodi-0.dtd"
   xmlns:inkscape="http://www.inkscape.org/namespaces/inkscape"
   version="1.1"
   id="svg4931"
   viewBox="0 0 607.99902 420.01622"
   height="118.53791mm"
   width="171.59084mm"
   inkscape:version="0.91 r13725"
   sodipodi:docname="tempo-1.svg">
  <sodipodi:namedview
     pagecolor="#ffffff"
     bordercolor="#666666"
     borderopacity="1"
     objecttolerance="10"
     gridtolerance="10"
     guidetolerance="10"
     inkscape:pageopacity="0"
     inkscape:pageshadow="2"
     inkscape:window-width="1009"
     inkscape:window-height="625"
     id="namedview5632"
     showgrid="false"
     inkscape:zoom="0.50986924"
     inkscape:cx="278.50278"
     inkscape:cy="210.00811"
     inkscape:window-x="138"
     inkscape:window-y="163"
     inkscape:window-maximized="0"
     inkscape:current-layer="svg4931" />
  <defs
     id="defs4933" />
  <metadata
     id="metadata4936">
    <rdf:RDF>
      <cc:Work
         rdf:about="">
        <dc:format>image/svg+xml</dc:format>
        <dc:type
           rdf:resource="http://purl.org/dc/dcmitype/StillImage" />
        <dc:title />
      </cc:Work>
    </rdf:RDF>
  </metadata>
  <g
     transform="matrix(-1,0,0,1,638.40515,-577.71438)"
     id="layer1">
    <path
       style="color:#000000;font-style:normal;font-variant:normal;font-weight:normal;font-stretch:normal;font-size:medium;line-height:normal;font-family:sans-serif;text-indent:0;text-align:start;text-decoration:none;text-decoration-line:none;text-decoration-style:solid;text-decoration-color:#000000;letter-spacing:normal;word-spacing:normal;text-transform:none;direction:ltr;block-progression:tb;writing-mode:lr-tb;baseline-shift:baseline;text-anchor:start;white-space:normal;clip-rule:nonzero;display:inline;overflow:visible;visibility:visible;opacity:1;isolation:auto;mix-blend-mode:normal;color-interpolation:sRGB;color-interpolation-filters:linearRGB;solid-color:#000000;solid-opacity:1;fill:#000000;fill-opacity:1;fill-rule:evenodd;stroke:none;stroke-width:20;stroke-linecap:round;stroke-linejoin:round;stroke-miterlimit:4;stroke-dasharray:none;stroke-dashoffset:0;stroke-opacity:1;color-rendering:auto;image-rendering:auto;shape-rendering:auto;text-rendering:auto;enable-background:accumulate"
       d="M 210.14648 0.001953125 C 207.44439 -0.037866875 204.8412 1.0174944 202.92969 2.9277344 L 2.9296875 202.92773 C -0.9752925 206.83325 -0.9752925 213.16479 2.9296875 217.07031 L 202.92969 417.07031 C 209.23031 423.36647 219.998 418.90535 220 409.99805 L 220 240.14062 L 396.92969 417.07031 C 403.23031 423.36647 413.998 418.90535 414 409.99805 L 414 240.14062 L 590.92969 417.07031 C 597.23031 423.36647 607.9983 418.90535 608 409.99805 L 608 9.9980469 C 607.99792 4.5336469 603.61029 0.082553125 598.14648 0.001953125 C 595.44439 -0.037866875 592.8412 1.0174944 590.92969 2.9277344 L 414 179.85742 L 414 9.9980469 C 413.99791 4.5336469 409.61029 0.082553125 404.14648 0.001953125 C 401.44439 -0.037866875 398.8412 1.0174944 396.92969 2.9277344 L 220 179.85742 L 220 9.9980469 C 219.99791 4.5336469 215.61029 0.082553125 210.14648 0.001953125 z "
       transform="matrix(-1,0,0,1,638.40515,577.71438)"
       id="path5493" />
  </g>
</svg>
