<?xml version="1.0" encoding="UTF-8" standalone="no"?>
<svg
   xmlns:dc="http://purl.org/dc/elements/1.1/"
   xmlns:cc="http://creativecommons.org/ns#"
   xmlns:rdf="http://www.w3.org/1999/02/22-rdf-syntax-ns#"
   xmlns:svg="http://www.w3.org/2000/svg"
   xmlns="http://www.w3.org/2000/svg"
   xmlns:sodipodi="http://sodipodi.sourceforge.net/DTD/sodipodi-0.dtd"
   xmlns:inkscape="http://www.inkscape.org/namespaces/inkscape"
   version="1.1"
   id="svg4931"
   viewBox="0 0 607.99902 420.01622"
   height="118.53791mm"
   width="171.59084mm"
   inkscape:version="0.91 r13725"
   sodipodi:docname="tempo-3.svg">
  <sodipodi:namedview
     pagecolor="#ffffff"
     bordercolor="#666666"
     borderopacity="1"
     objecttolerance="10"
     gridtolerance="10"
     guidetolerance="10"
     inkscape:pageopacity="0"
     inkscape:pageshadow="2"
     inkscape:window-width="1041"
     inkscape:window-height="651"
     id="namedview6826"
     showgrid="false"
     inkscape:zoom="0.50986924"
     inkscape:cx="278.50278"
     inkscape:cy="210.00811"
     inkscape:window-x="63"
     inkscape:window-y="43"
     inkscape:window-maximized="0"
     inkscape:current-layer="svg4931" />
  <defs
     id="defs4933" />
  <metadata
     id="metadata4936">
    <rdf:RDF>
      <cc:Work
         rdf:about="">
        <dc:format>image/svg+xml</dc:format>
        <dc:type
           rdf:resource="http://purl.org/dc/dcmitype/StillImage" />
        <dc:title />
      </cc:Work>
    </rdf:RDF>
  </metadata>
  <g
     transform="translate(-30.406102,-577.71438)"
     id="layer1">
    <path
       style="color:#000000;font-style:normal;font-variant:normal;font-weight:normal;font-stretch:normal;font-size:medium;line-height:normal;font-family:sans-serif;text-indent:0;text-align:start;text-decoration:none;text-decoration-line:none;text-decoration-style:solid;text-decoration-color:#000000;letter-spacing:normal;word-spacing:normal;text-transform:none;direction:ltr;block-progression:tb;writing-mode:lr-tb;baseline-shift:baseline;text-anchor:start;white-space:normal;clip-rule:nonzero;display:inline;overflow:visible;visibility:visible;opacity:1;isolation:auto;mix-blend-mode:normal;color-interpolation:sRGB;color-interpolation-filters:linearRGB;solid-color:#000000;solid-opacity:1;fill:#000000;fill-opacity:1;fill-rule:evenodd;stroke:none;stroke-width:20;stroke-linecap:round;stroke-linejoin:round;stroke-miterlimit:4;stroke-dasharray:none;stroke-dashoffset:0;stroke-opacity:1;color-rendering:auto;image-rendering:auto;shape-rendering:auto;text-rendering:auto;enable-background:accumulate"
       d="M 9.8535156 0.001953125 C 4.3897056 0.082553125 0.002083 4.5336469 0 9.9980469 L 0 409.99805 C 0.0017 418.90535 10.769689 423.36647 17.070312 417.07031 L 194 240.14062 L 194 409.99805 C 194.002 418.90535 204.76969 423.36647 211.07031 417.07031 L 388 240.14062 L 388 409.99805 C 388.002 418.90535 398.76969 423.36647 405.07031 417.07031 L 605.07031 217.07031 C 608.97529 213.16479 608.97529 206.83325 605.07031 202.92773 L 405.07031 2.9277344 C 403.1588 1.0174944 400.55561 -0.037866875 397.85352 0.001953125 C 392.38971 0.082553125 388.00209 4.5336469 388 9.9980469 L 388 179.85742 L 211.07031 2.9277344 C 209.1588 1.0174944 206.55561 -0.037866875 203.85352 0.001953125 C 198.38971 0.082553125 194.00209 4.5336469 194 9.9980469 L 194 179.85742 L 17.070312 2.9277344 C 15.158803 1.0174944 12.555607 -0.037866875 9.8535156 0.001953125 z "
       transform="translate(30.406102,577.71438)"
       id="path5493" />
  </g>
</svg>
