<?xml version="1.0" encoding="UTF-8" standalone="no"?>
<svg
   xmlns:dc="http://purl.org/dc/elements/1.1/"
   xmlns:cc="http://creativecommons.org/ns#"
   xmlns:rdf="http://www.w3.org/1999/02/22-rdf-syntax-ns#"
   xmlns:svg="http://www.w3.org/2000/svg"
   xmlns="http://www.w3.org/2000/svg"
   version="1.1"
   id="svg2"
   viewBox="0 0 239.95638 379.87573"
   height="107.20937mm"
   width="67.721024mm">
  <defs
     id="defs4" />
  <metadata
     id="metadata7">
    <rdf:RDF>
      <cc:Work
         rdf:about="">
        <dc:format>image/svg+xml</dc:format>
        <dc:type
           rdf:resource="http://purl.org/dc/dcmitype/StillImage" />
        <dc:title></dc:title>
      </cc:Work>
    </rdf:RDF>
  </metadata>
  <g
     transform="translate(-112.85682,-284.24096)"
     id="layer1">
    <path
       id="path4147"
       d="m 325.35713,662.29922 c -2.69028,-1.26188 -21.35262,-19.26331 -56.99647,-54.97804 l -52.99646,-53.10183 -43.00354,-0.022 c -39.72357,-0.0203 -43.30862,-0.16317 -47.00353,-1.87386 -2.20001,-1.01857 -5.21363,-3.14619 -6.69696,-4.72804 -5.94713,-6.34218 -5.80304,-4.5203 -5.80304,-73.3761 0,-68.8558 -0.14409,-67.03392 5.80304,-73.3761 1.48333,-1.58185 4.49695,-3.70947 6.69696,-4.72804 3.69245,-1.70955 7.266,-1.85362 46.47872,-1.8739 l 42.47873,-0.022 53.02127,-52.94564 c 55.00182,-54.92337 57.35583,-56.97922 65.3034,-57.0324 7.19796,-0.0482 14.97465,5.24808 18.32202,12.47804 1.7801,3.84483 1.85194,10.73031 1.85194,177.5 0,166.76969 -0.0718,173.65517 -1.85194,177.5 -2.26936,4.90158 -6.39185,8.8875 -11.32202,10.94695 -4.89807,2.04604 -9.3832,1.93077 -14.28212,-0.36708 z"
       style="fill:#000000" />
  </g>
</svg>
